<svg width="14" height="14" viewBox="0 0 14 14" fill="none" xmlns="http://www.w3.org/2000/svg">
<g opacity="0.7" clip-path="url(#clip0_5553_2341)">
<path d="M1.36206 6.02966C1.17933 5.86068 1.27859 5.55519 1.52575 5.52589L5.02783 5.1105C5.12856 5.09856 5.21606 5.0353 5.25855 4.94319L6.73568 1.74081C6.83992 1.51481 7.16122 1.51477 7.26546 1.74077L8.74259 4.94312C8.78508 5.03523 8.87201 5.09866 8.97274 5.1106L12.475 5.52589C12.7222 5.55519 12.8212 5.86077 12.6384 6.02975L10.0495 8.42432C9.97506 8.49319 9.9419 8.59571 9.96167 8.6952L10.6488 12.1542C10.6973 12.3983 10.4375 12.5874 10.2203 12.4659L7.143 10.7429C7.05449 10.6934 6.94695 10.6936 6.85844 10.7431L3.78084 12.4654C3.56366 12.587 3.30338 12.3983 3.35189 12.1542L4.03908 8.69541C4.05885 8.59592 4.02578 8.49317 3.95131 8.4243L1.36206 6.02966Z" stroke="white" stroke-width="1.5" stroke-linecap="round" stroke-linejoin="round"/>
</g>
<defs>
<clipPath id="clip0_5553_2341">
<rect width="14" height="14" fill="white"/>
</clipPath>
</defs>
</svg>
