<svg width="14" height="15" viewBox="0 0 14 15" fill="none" xmlns="http://www.w3.org/2000/svg">
<g opacity="0.4">
<path d="M1.36206 6.52978C1.17933 6.3608 1.27859 6.05531 1.52575 6.02601L5.02783 5.61062C5.12856 5.59868 5.21606 5.53542 5.25855 5.44331L6.73568 2.24094C6.83992 2.01493 7.16122 2.01489 7.26546 2.24089L8.74259 5.44324C8.78508 5.53535 8.87201 5.59878 8.97274 5.61072L12.475 6.02601C12.7222 6.05531 12.8212 6.36089 12.6384 6.52987L10.0495 8.92445C9.97506 8.99332 9.9419 9.09583 9.96167 9.19532L10.6488 12.6543C10.6973 12.8984 10.4375 13.0876 10.2203 12.966L7.143 11.243C7.05449 11.1935 6.94695 11.1937 6.85844 11.2433L3.78084 12.9656C3.56366 13.0871 3.30338 12.8984 3.35189 12.6543L4.03908 9.19554C4.05885 9.09604 4.02578 8.9933 3.95131 8.92443L1.36206 6.52978Z" stroke="white" stroke-linecap="round" stroke-linejoin="round"/>
</g>
</svg>
