<svg width="10" height="13" viewBox="0 0 10 13" fill="none" xmlns="http://www.w3.org/2000/svg">
<path d="M5.0125 13H5C4.78125 13 4.575 12.909 4.425 12.74C4.30625 12.61 3.2375 11.4335 2.16875 9.9515C0.73125 7.943 0 6.3375 0 5.1935C0 2.327 2.24375 0 5 0C7.75625 0 10 2.327 10 5.1935C10 5.889 9.74375 6.7405 9.23125 7.7285C8.74375 8.6775 8.00625 9.7825 7.0375 11.0045L7.03125 11.011L5.59375 12.714C5.45 12.896 5.2375 13 5.0125 13ZM5 7.618C6.29375 7.618 7.3375 6.526 7.3375 5.187C7.3375 3.848 6.29375 2.7625 5 2.7625C3.70625 2.7625 2.65625 3.848 2.65625 5.1935C2.65625 6.539 3.70625 7.618 5 7.618Z" fill="#00CC29"/>
</svg>
