<svg width="14" height="14" viewBox="0 0 14 14" fill="none" xmlns="http://www.w3.org/2000/svg">
<g opacity="0.7">
<path d="M7 5.71663V11.6666M7 5.71663C7 4.73654 7 4.2467 7.19074 3.87236C7.35852 3.54307 7.62604 3.27527 7.95532 3.10749C8.32967 2.91675 8.81979 2.91675 9.79989 2.91675H11.3166C11.6432 2.91675 11.8067 2.91675 11.9315 2.98033C12.0413 3.03625 12.1303 3.12543 12.1862 3.23519C12.2498 3.35997 12.25 3.52344 12.25 3.85014V8.98347C12.25 9.31017 12.2498 9.47329 12.1862 9.59807C12.1303 9.70783 12.0414 9.7973 11.9317 9.85323C11.807 9.91675 11.6439 9.91675 11.3179 9.91675H9.66545C9.11757 9.91675 8.84314 9.91675 8.59448 9.99226C8.37435 10.0591 8.16997 10.1686 7.99224 10.3147C7.79148 10.4797 7.63935 10.7076 7.33544 11.1635L7 11.6666M7 5.71663C7 4.73654 6.9999 4.2467 6.80916 3.87236C6.64138 3.54307 6.37365 3.27527 6.04437 3.10749C5.67002 2.91675 5.17986 2.91675 4.19977 2.91675H2.68311C2.35641 2.91675 2.19322 2.91675 2.06844 2.98033C1.95868 3.03625 1.86951 3.12543 1.81358 3.23519C1.75 3.35997 1.75 3.52344 1.75 3.85014V8.98347C1.75 9.31017 1.75 9.47329 1.81358 9.59807C1.86951 9.70783 1.95868 9.7973 2.06844 9.85323C2.1931 9.91675 2.35609 9.91675 2.68215 9.91675H4.33459C4.88247 9.91675 5.15633 9.91675 5.40498 9.99226C5.62512 10.0591 5.83049 10.1686 6.00822 10.3147C6.20816 10.479 6.35934 10.7058 6.66078 11.1579L7 11.6666" stroke="white" stroke-width="1.5" stroke-linecap="round" stroke-linejoin="round"/>
</g>
</svg>
