<svg width="16" height="16" viewBox="0 0 16 16" fill="none" xmlns="http://www.w3.org/2000/svg">
<path d="M4.50579 13.5808C3.5983 13.5218 2.74307 13.1354 2.09903 12.4934C1.455 11.8513 1.06595 10.9973 1.00419 10.09C0.959408 9.12256 1.27471 8.17284 1.8892 7.42426C2.50368 6.67569 3.37376 6.18138 4.33139 6.0368C4.40801 5.07641 4.84262 4.17985 5.5491 3.52479C6.25558 2.86973 7.18236 2.50397 8.14579 2.5C9.10955 2.5039 10.0366 2.86984 10.7432 3.52524C11.4498 4.18065 11.8843 5.07766 11.9606 6.0384C12.9182 6.18246 13.7885 6.67646 14.403 7.42489C15.0176 8.17332 15.3328 9.12303 15.2878 10.0904C15.2264 10.9982 14.8372 11.8528 14.1927 12.495C13.5482 13.1373 12.6922 13.5234 11.7842 13.5816H6.72939L4.50579 13.5808ZM7.20179 8.7228H6.42059C6.34514 8.72415 6.27232 8.75077 6.21379 8.7984C6.14071 8.8547 6.09255 8.93736 6.07962 9.0287C6.06668 9.12005 6.09 9.21283 6.14459 9.2872L7.87659 11.6288C7.90845 11.6721 7.95003 11.7072 7.99797 11.7314C8.04591 11.7557 8.09888 11.7683 8.15259 11.7683C8.20631 11.7683 8.25927 11.7557 8.30722 11.7314C8.35516 11.7072 8.39673 11.6721 8.42859 11.6288L10.1426 9.3108C10.2009 9.2453 10.2328 9.16049 10.2322 9.0728C10.2325 9.02702 10.2238 8.98163 10.2065 8.93923C10.1892 8.89683 10.1637 8.85826 10.1315 8.82574C10.0993 8.79322 10.061 8.76738 10.0187 8.74972C9.97649 8.73205 9.93118 8.72291 9.88539 8.7228H9.09179V6.3804C9.09183 6.3395 9.0761 6.30016 9.04785 6.27058C9.01961 6.241 8.98105 6.22345 8.94019 6.2216H7.35299C7.31221 6.22355 7.27374 6.24114 7.24559 6.27072C7.21743 6.30029 7.20175 6.33957 7.20179 6.3804V8.7228Z" fill="white"/>
</svg>
