<svg width="42" height="23" viewBox="0 0 42 23" fill="none" xmlns="http://www.w3.org/2000/svg">
<path d="M0 10C0 4.47715 4.47715 0 10 0H41.0641V13C41.0641 18.5228 36.5869 23 31.0641 23H0V10Z" fill="url(#paint0_linear_3516_10621)"/>
<path opacity="0.9" d="M20.55 9.694L20.13 13.124L17.75 13.082C17.4047 13.0727 17.1434 12.984 16.966 12.816C16.7887 12.648 16.7 12.41 16.7 12.102C16.7 12.0087 16.7047 11.934 16.714 11.878L16.938 10.044L16.294 11.64L15.286 11.346L14.684 13.39L12.71 13.04L13.382 10.786L12.5 10.534L12.626 10.212L11.562 10.268L11.198 13.208L8.03402 13.152L8.23002 11.556L9.37802 11.57L9.53202 10.394L8.02002 10.478L8.10402 8.686L9.75602 8.602L9.89602 7.44L8.37002 7.412L8.58002 5.62L10.106 5.648L10.26 4.458L12.276 4.5L12.122 5.69L13.452 5.704L13.242 7.496L11.912 7.468L11.786 8.49L12.962 8.42L12.85 9.68L13.172 8.854L13.9 9.078L14.376 7.468L13.648 7.454L13.872 5.662L14.908 5.676L15.272 4.472L17.246 4.78L16.966 5.718L18.296 5.732C18.6414 5.74133 18.9027 5.83 19.08 5.998C19.2574 6.166 19.346 6.404 19.346 6.712C19.346 6.81467 19.3414 6.894 19.332 6.95L18.8 11.332L18.03 12.13L19.122 11.332L19.318 11.346L19.514 9.68L20.55 9.694ZM17.246 7.51L16.434 7.496L15.79 9.666L16.938 10.016L17.19 8L17.246 7.51ZM8.37002 13.306L10.372 13.908L9.12602 17.03L7.12402 16.456L8.37002 13.306ZM19.346 13.39L19.682 16.708L17.512 17.142L17.19 13.824L19.346 13.39ZM14.194 13.88L16.308 13.698L16.252 16.736L14.138 16.918L14.194 13.88ZM11.016 13.978L13.116 13.81L13.074 16.834L10.96 17.016L11.016 13.978ZM23.07 7.034L23.364 4.654L25.744 4.696L25.45 7.076L23.07 7.034ZM27.9 16.792L28.138 14.916L30.868 14.972L31.848 6.978L26.276 6.88L26.514 4.948L33.08 5.06C33.4254 5.06933 33.6867 5.158 33.864 5.326C34.0414 5.494 34.13 5.732 34.13 6.04C34.13 6.14267 34.1254 6.222 34.116 6.278L32.814 16.876L27.9 16.792ZM21.53 16.918L22.678 7.636L24.862 7.664L23.714 16.96L21.53 16.918Z" fill="white"/>
<defs>
<linearGradient id="paint0_linear_3516_10621" x1="0" y1="11.5" x2="41.0641" y2="11.5" gradientUnits="userSpaceOnUse">
<stop stop-color="#FF512F"/>
<stop offset="1" stop-color="#DD2476"/>
</linearGradient>
</defs>
</svg>
