<svg width="19" height="19" viewBox="0 0 19 19" fill="none" xmlns="http://www.w3.org/2000/svg">
<path d="M15.5912 12.1981C15.5912 12.1959 15.5917 12.1948 15.5922 12.1926H15.5917C15.7064 11.3925 15.6938 9.9844 14.6478 8.53623C13.3901 6.79392 13.2935 5.97791 13.2073 5.25683L13.1903 5.12459C13.1673 4.93472 13.0421 4.77557 12.8627 4.70752C12.6898 4.64057 12.4829 4.6768 12.3403 4.8008C11.386 5.63713 11.1001 6.671 10.9969 7.5501C9.89006 5.18605 10.0788 3.20721 10.1617 2.34017C10.1776 2.164 10.1035 1.99443 9.96415 1.88634C9.82695 1.77932 9.6332 1.74969 9.47736 1.80786C5.70628 3.15452 5.69971 7.33059 6.08384 9.86915C5.42421 9.30502 4.91443 8.34526 4.72511 7.87936C4.64606 7.68783 4.46058 7.56546 4.2345 7.55999C4.01939 7.56548 3.83391 7.70046 3.76147 7.90243C3.74334 7.9551 1.97689 13.2408 6.00207 16.0438C7.27134 16.8253 8.55272 17.2215 9.81322 17.2215C12.6761 17.0942 14.6253 15.7596 15.4408 12.8555C15.4545 12.8193 15.5352 12.579 15.5912 12.1981ZM9.82256 16.1942C8.74973 16.1942 7.65332 15.8529 6.56674 15.1834C5.15809 14.2022 4.4189 12.7524 4.36839 10.8734C4.35687 10.441 4.38375 9.98881 4.44905 9.52677C4.94735 10.2786 5.70627 11.1182 6.68526 11.3004C6.85649 11.3278 7.02716 11.274 7.14515 11.1522C7.26475 11.0304 7.31634 10.8581 7.28178 10.688L7.2642 10.6068C6.8938 8.88087 6.34391 4.74487 9.07785 3.12602C9.00104 5.50766 9.63651 7.64397 11.0194 9.6519C11.145 9.8341 11.3799 9.91639 11.5961 9.85164C11.8123 9.78251 11.9583 9.58385 11.9583 9.3583V9.22165C11.9583 8.19329 11.9583 7.2176 12.3693 6.40706C12.5268 6.97504 12.8714 7.83493 13.812 9.13771C14.6176 10.2544 14.656 11.3366 14.5825 11.9644C14.5814 11.9698 14.234 13.9234 13.3615 14.819C13.2649 14.9035 13.1453 15.0023 13.0042 15.1066C12.8956 15.1702 12.827 15.2208 12.7792 15.2646C12.1174 15.708 11.1038 16.1931 9.82305 16.1942H9.82256V16.1942Z" fill="white"/>
</svg>
