<svg width="23" height="12" viewBox="0 0 23 12" fill="none" xmlns="http://www.w3.org/2000/svg">
<rect x="0.5" width="22" height="12" rx="2" fill="#D9D9D9"/>
<rect x="0.5" width="22" height="12" rx="2" fill="url(#paint0_linear_5005_50984)"/>
<path d="M19 4.34253H17.5276V8.95027H16.0552V4.34253H14.5828V3.04972H19V4.34253Z" fill="white"/>
<path d="M14.0854 6C14.0854 6.88674 14.1107 7.71547 13.4796 8.33702C13.0421 8.76796 12.5373 9 11.8053 9C11.0733 9 10.5685 8.76796 10.131 8.33702C9.49995 7.71547 9.52519 6.88674 9.52519 6C9.52519 5.11326 9.49995 4.28453 10.131 3.66298C10.5685 3.23204 11.0733 3 11.8053 3C12.5373 3 13.0421 3.23204 13.4796 3.66298C14.1107 4.28453 14.0854 5.11326 14.0854 6ZM12.613 6C12.613 4.92265 12.5289 4.72376 12.3943 4.54972C12.2849 4.40884 12.0746 4.29282 11.8053 4.29282C11.5361 4.29282 11.3257 4.40884 11.2164 4.54972C11.0817 4.72376 10.9976 4.92265 10.9976 6C10.9976 7.07735 11.0817 7.26796 11.2164 7.44199C11.3257 7.58287 11.5361 7.70718 11.8053 7.70718C12.0746 7.70718 12.2849 7.58287 12.3943 7.44199C12.5289 7.26796 12.613 7.07735 12.613 6Z" fill="white"/>
<path d="M8.50975 8.95027H7.03735V6.61325H5.4724V8.95027H4V3.04972H5.4724V5.32044H7.03735V3.04972H8.50975V8.95027Z" fill="white"/>
<defs>
<linearGradient id="paint0_linear_5005_50984" x1="16.0833" y1="6.30788" x2="1.8759" y2="6.30788" gradientUnits="userSpaceOnUse">
<stop stop-color="#FF4448"/>
<stop offset="1" stop-color="#FF7A9F"/>
</linearGradient>
</defs>
</svg>
