<?xml version="1.0" encoding="UTF-8"?>
<svg width="117px" height="33px" viewBox="0 0 117 33" version="1.1" xmlns="http://www.w3.org/2000/svg" xmlns:xlink="http://www.w3.org/1999/xlink">
    <title>YourpornLogo1 2</title>
    <g id="页面-1" stroke="none" stroke-width="1" fill="none" fill-rule="evenodd">
        <g id="YourpornLogo1-2" fill-rule="nonzero">
            <g id="编组">
                <g>
                    <path d="M12.92,1.53 L9.29,7.23 C9.22,7.35 9.18,7.48 9.18,7.62 L9.18,15.42 C9.18,15.82 8.85,16.15 8.45,16.15 L5.23,16.15 C4.83,16.15 4.5,15.82 4.5,15.42 L4.5,7.62 C4.5,7.48 4.46,7.35 4.39,7.23 L0.74,1.53 C0.42,1.05 0.77,0.41 1.34,0.41 L4.36,0.41 C4.61,0.41 4.84,0.54 4.98,0.75 L6.2,2.7 C6.48,3.15 7.12,3.16 7.42,2.72 L8.76,0.73 C8.89,0.53 9.12,0.41 9.36,0.41 L12.31,0.41 C12.88,0.41 13.23,1.04 12.92,1.53 Z" id="路径" fill="#CADB2E"></path>
                    <path d="M21.87,0.02 C24.1,0.02 26.01,0.83 27.6,2.45 C29.19,4.07 29.99,6.01 29.99,8.27 C29.99,10.57 29.19,12.52 27.58,14.13 C25.95,15.76 23.96,16.56 21.61,16.54 C19.52,16.52 17.5,15.69 16,14.24 C14.31,12.6 13.46,10.62 13.46,8.28 C13.46,5.97 14.27,4.02 15.9,2.43 C17.53,0.82 19.52,0.02 21.87,0.02 Z M21.73,4.65 C20.77,4.65 19.95,5 19.28,5.71 C18.6,6.42 18.27,7.27 18.27,8.27 C18.27,9.27 18.61,10.12 19.29,10.83 C19.97,11.54 20.79,11.89 21.74,11.89 C22.71,11.89 23.53,11.54 24.2,10.84 C24.87,10.14 25.21,9.28 25.21,8.28 C25.21,7.27 24.87,6.42 24.2,5.72 C23.53,5.02 22.7,4.65 21.73,4.65 Z" id="形状" fill="#CADB2E"></path>
                    <path d="M42.52,0.41 C42.92,0.41 43.25,0.74 43.25,1.14 L43.25,10.61 C43.25,12.41 42.71,13.84 41.64,14.92 C40.57,16 39.14,16.53 37.36,16.53 C35.58,16.53 34.23,16.01 33.29,14.96 C32.35,13.92 31.88,12.41 31.88,10.45 L31.88,1.14 C31.88,0.74 32.21,0.41 32.61,0.41 L35.84,0.41 C36.24,0.41 36.57,0.74 36.57,1.14 L36.57,10.45 C36.57,11.41 36.91,11.89 37.6,11.89 C38.26,11.89 38.59,11.41 38.59,10.45 L38.59,1.14 C38.59,0.74 38.92,0.41 39.32,0.41 L42.52,0.41 Z" id="路径" fill="#CADB2E"></path>
                    <path d="M50.77,5.37 L50.77,15.42 C50.77,15.82 50.44,16.15 50.04,16.15 L46.81,16.15 C46.41,16.15 46.08,15.82 46.08,15.42 L46.08,1.14 C46.08,0.74 46.41,0.41 46.81,0.41 L52.09,0.41 C53.92,0.41 55.34,0.86 56.34,1.77 C57.46,2.78 58.02,4.07 58.02,5.63 C58.02,7.07 57.45,8.31 56.31,9.34 C56.09,9.54 56.02,9.87 56.14,10.15 L58.22,15.14 C58.42,15.62 58.07,16.15 57.55,16.15 L54.2,16.15 C53.91,16.15 53.65,15.98 53.54,15.72 L51.53,11.22 C51.49,11.13 51.47,11.03 51.47,10.92 L51.47,7.03 L51.84,7.03 C52.82,7.03 53.32,6.61 53.32,5.76 C53.32,5.01 52.75,4.64 51.61,4.64 L51.51,4.64 C51.1,4.64 50.77,4.97 50.77,5.37 Z" id="路径" fill="#CADB2E"></path>
                    <path d="M65.33,9.99 L65.33,7.23 C65.33,6.88 65.58,6.6 65.91,6.52 C66.47,6.39 66.74,6.05 66.74,5.5 C66.74,4.84 66.38,4.51 65.66,4.51 C64.93,4.51 64.57,4.96 64.57,5.87 L64.57,15.42 C64.57,15.82 64.24,16.15 63.84,16.15 L60.61,16.15 C60.21,16.15 59.88,15.82 59.88,15.42 L59.88,6.35 C59.88,5.34 59.98,4.5 60.19,3.85 C60.39,3.2 60.74,2.6 61.23,2.03 C61.78,1.41 62.47,0.92 63.3,0.55 C64.14,0.2 65,0.02 65.88,0.02 C67.48,0.02 68.82,0.56 69.91,1.63 C71,2.7 71.54,4.04 71.54,5.63 C71.54,7.17 71.05,8.43 70.08,9.39 C69.19,10.27 67.84,10.72 66.05,10.72 L66.05,10.72 C65.65,10.71 65.33,10.39 65.33,9.99 Z" id="路径" fill="#F04B45"></path>
                    <path d="M80.94,0.02 C83.17,0.02 85.08,0.83 86.67,2.45 C88.26,4.07 89.06,6.01 89.06,8.27 C89.06,10.57 88.26,12.52 86.65,14.13 C85.02,15.76 83.03,16.56 80.68,16.54 C78.59,16.52 76.57,15.69 75.07,14.24 C73.38,12.6 72.53,10.62 72.53,8.28 C72.53,5.97 73.34,4.02 74.97,2.43 C76.6,0.84 78.59,0.02 80.94,0.02 Z M80.8,4.65 C79.84,4.65 79.02,5 78.35,5.71 C77.67,6.42 77.34,7.27 77.34,8.27 C77.34,9.27 77.68,10.12 78.36,10.83 C79.04,11.54 79.86,11.89 80.81,11.89 C81.78,11.89 82.6,11.54 83.27,10.84 C83.94,10.14 84.28,9.28 84.28,8.28 C84.28,7.27 83.94,6.42 83.27,5.72 C82.59,5 81.77,4.65 80.8,4.65 Z" id="形状" fill="#F04B45"></path>
                    <path d="M95.94,5.37 L95.94,15.42 C95.94,15.82 95.61,16.15 95.21,16.15 L91.98,16.15 C91.58,16.15 91.25,15.82 91.25,15.42 L91.25,1.14 C91.25,0.74 91.58,0.41 91.98,0.41 L97.26,0.41 C99.09,0.41 100.51,0.86 101.51,1.77 C102.63,2.78 103.19,4.07 103.19,5.63 C103.19,7.07 102.62,8.31 101.48,9.34 C101.26,9.54 101.19,9.87 101.31,10.15 L103.39,15.14 C103.59,15.62 103.24,16.15 102.72,16.15 L99.37,16.15 C99.08,16.15 98.82,15.98 98.71,15.72 L96.7,11.22 C96.66,11.13 96.64,11.03 96.64,10.92 L96.64,7.03 L97,7.03 C97.98,7.03 98.48,6.61 98.48,5.76 C98.48,5.01 97.91,4.64 96.77,4.64 L96.67,4.64 C96.27,4.64 95.94,4.97 95.94,5.37 Z" id="路径" fill="#F04B45"></path>
                    <path d="M105.79,16.14 C105.39,16.14 105.06,15.81 105.06,15.41 L105.06,5.93 C105.06,4.14 105.6,2.71 106.67,1.63 C107.74,0.55 109.17,0.02 110.95,0.02 C112.72,0.02 114.08,0.54 115.02,1.59 C115.96,2.64 116.43,4.14 116.43,6.1 L116.43,15.42 C116.43,15.82 116.1,16.15 115.7,16.15 L112.47,16.15 C112.07,16.15 111.74,15.82 111.74,15.42 L111.74,6.1 C111.74,5.14 111.4,4.66 110.71,4.66 C110.05,4.66 109.72,5.14 109.72,6.1 L109.72,15.42 C109.72,15.82 109.39,16.15 108.99,16.15 L105.79,16.15 L105.79,16.14 Z" id="路径" fill="#F04B45"></path>
                </g>
                <g transform="translate(0.000000, 21.000000)" fill="#FFFFFF">
                    <path d="M0.67,11.26 C0.67,11.26 0.67,11.26 0.67,11.26 L1.26,10.16 L4.93,2.7 L5.32,1.87 C5.43,1.62 5.59,1.27 5.8,0.81 C5.8,0.81 5.8,0.81 5.8,0.81 C6.63,0.82 7.24,0.83 7.63,0.83 C8.3,0.83 8.92,0.83 9.48,0.81 C9.48,0.81 9.48,0.81 9.48,0.81 L10.52,4 L12.63,10.14 L13.04,11.26 C13.04,11.26 13.04,11.26 13.04,11.26 C12.22,11.25 11.72,11.24 11.55,11.24 C11.15,11.24 10.57,11.24 9.79,11.26 C9.79,11.26 9.79,11.26 9.79,11.26 C9.58,10.42 9.28,9.43 8.89,8.29 C8.89,8.29 8.89,8.29 8.89,8.29 L5.31,8.29 C5.31,8.29 5.31,8.29 5.31,8.29 C4.9,9.19 4.47,10.18 4.03,11.26 C4.03,11.26 4.03,11.26 4.03,11.26 C3.15,11.25 2.61,11.24 2.41,11.24 C2.05,11.25 1.47,11.25 0.67,11.26 Z M6.17,6.06 L8.38,6.06 C8.38,6.06 8.38,6.06 8.38,6.06 C7.83,4.26 7.53,3.27 7.48,3.09 C7.48,3.09 7.48,3.09 7.48,3.09 C7.17,3.84 6.9,4.45 6.69,4.93 L6.17,6.06 C6.17,6.06 6.17,6.06 6.17,6.06 Z" id="形状"></path>
                    <path d="M13.7,11.1 C13.64,10.01 13.57,9.14 13.49,8.49 C13.49,8.49 13.49,8.49 13.49,8.49 C14.02,8.75 14.49,8.92 14.91,9.02 C15.32,9.12 15.69,9.17 16,9.17 C16.41,9.17 16.74,9.1 16.99,8.97 C17.24,8.84 17.36,8.65 17.36,8.39 C17.36,8.3 17.35,8.22 17.32,8.14 C17.3,8.06 17.25,7.97 17.19,7.87 C17.12,7.77 17.03,7.66 16.91,7.54 L15.57,6.28 C15.26,5.99 15.04,5.79 14.92,5.66 C14.67,5.4 14.47,5.16 14.33,4.93 C14.19,4.71 14.09,4.48 14.02,4.24 C13.96,4.01 13.92,3.76 13.92,3.5 C13.92,3.19 13.97,2.88 14.07,2.58 C14.17,2.28 14.32,2 14.53,1.74 C14.73,1.48 15,1.26 15.34,1.07 C15.68,0.88 16.04,0.75 16.42,0.68 C16.8,0.61 17.2,0.58 17.61,0.58 C18.41,0.58 19.28,0.68 20.22,0.88 C20.22,0.88 20.22,0.88 20.22,0.88 C20.23,1.23 20.25,1.55 20.27,1.85 C20.29,2.14 20.33,2.66 20.4,3.39 C20.4,3.39 20.4,3.39 20.4,3.39 C19.96,3.2 19.57,3.07 19.21,3 C18.85,2.93 18.54,2.89 18.28,2.89 C17.91,2.89 17.6,2.96 17.36,3.11 C17.12,3.26 16.99,3.44 16.99,3.66 C16.99,3.76 17.01,3.86 17.05,3.96 C17.09,4.06 17.16,4.17 17.26,4.3 C17.36,4.43 17.5,4.57 17.67,4.73 C17.84,4.89 18.11,5.12 18.47,5.42 L18.98,5.86 C19.13,5.99 19.29,6.15 19.47,6.34 C19.65,6.53 19.8,6.72 19.92,6.9 C20.05,7.08 20.15,7.25 20.22,7.41 C20.29,7.56 20.34,7.72 20.37,7.87 C20.4,8.03 20.42,8.19 20.42,8.37 C20.42,8.87 20.3,9.34 20.06,9.79 C19.86,10.16 19.57,10.48 19.23,10.73 C18.86,10.99 18.46,11.18 18.01,11.28 C17.56,11.39 17.09,11.44 16.59,11.44 C15.84,11.46 14.87,11.34 13.7,11.1 C13.7,11.1 13.7,11.1 13.7,11.1 Z" id="路径"></path>
                    <path d="M21.85,11.26 C21.85,11.26 21.85,11.26 21.85,11.26 C22.12,7.16 22.26,4 22.26,1.79 L22.25,0.8 C22.25,0.8 22.25,0.8 22.25,0.8 C23.08,0.81 23.63,0.82 23.91,0.82 C24.04,0.82 24.55,0.82 25.44,0.8 C25.44,0.8 25.44,0.8 25.44,0.8 C25.35,1.95 25.29,3.04 25.23,4.06 C25.16,5.49 25.12,6.83 25.09,8.07 C25.06,9.31 25.05,10.37 25.05,11.25 C25.05,11.25 25.05,11.25 25.05,11.25 L23.59,11.23 C23.32,11.25 22.73,11.25 21.85,11.26 Z" id="路径"></path>
                    <path d="M25.53,11.26 C25.53,11.26 25.53,11.26 25.53,11.26 L26.12,10.16 L29.79,2.7 L30.18,1.87 C30.29,1.62 30.45,1.27 30.66,0.81 C30.66,0.81 30.66,0.81 30.66,0.81 C31.49,0.82 32.1,0.83 32.49,0.83 C33.16,0.83 33.78,0.83 34.34,0.81 C34.34,0.81 34.34,0.81 34.34,0.81 L35.37,4 L37.48,10.14 L37.89,11.26 C37.89,11.26 37.89,11.26 37.89,11.26 C37.07,11.25 36.57,11.24 36.4,11.24 C36,11.24 35.42,11.24 34.64,11.26 C34.64,11.26 34.64,11.26 34.64,11.26 C34.43,10.42 34.13,9.43 33.74,8.29 C33.74,8.29 33.74,8.29 33.74,8.29 L30.16,8.29 C30.16,8.29 30.16,8.29 30.16,8.29 C29.75,9.19 29.32,10.18 28.88,11.26 C28.88,11.26 28.88,11.26 28.88,11.26 C28,11.25 27.46,11.24 27.26,11.24 C26.91,11.25 26.33,11.25 25.53,11.26 Z M31.03,6.06 L33.24,6.06 C33.24,6.06 33.24,6.06 33.24,6.06 C32.69,4.26 32.39,3.27 32.34,3.09 C32.34,3.09 32.34,3.09 32.34,3.09 C32.03,3.84 31.76,4.45 31.55,4.93 L31.03,6.06 C31.02,6.06 31.02,6.06 31.03,6.06 Z" id="形状"></path>
                    <path d="M50.67,8.71 C50.67,8.71 50.67,8.71 50.67,8.71 C50.61,9.01 50.55,9.43 50.46,9.97 C50.38,10.51 50.33,10.92 50.3,11.22 C50.3,11.22 50.3,11.22 50.3,11.22 C49.29,11.38 48.38,11.46 47.59,11.46 C46.82,11.46 46.11,11.36 45.45,11.15 C44.79,10.94 44.18,10.6 43.63,10.13 C43.08,9.66 42.68,9.1 42.45,8.46 C42.21,7.82 42.09,7.11 42.09,6.32 C42.09,5.4 42.25,4.57 42.57,3.83 C42.89,3.09 43.35,2.48 43.95,1.98 C44.55,1.49 45.21,1.14 45.92,0.92 C46.64,0.71 47.37,0.6 48.14,0.6 C48.84,0.6 49.71,0.7 50.74,0.89 C50.74,0.89 50.74,0.89 50.74,0.89 L50.75,1.53 C50.76,1.81 50.77,2.12 50.79,2.46 L50.84,3.33 C50.84,3.33 50.84,3.33 50.84,3.33 C50.29,3.19 49.84,3.09 49.49,3.04 C49.15,2.99 48.83,2.96 48.53,2.96 C47.89,2.96 47.32,3.1 46.8,3.37 C46.29,3.65 45.89,4.05 45.59,4.57 C45.3,5.1 45.15,5.68 45.15,6.32 C45.15,6.9 45.27,7.4 45.52,7.82 C45.77,8.24 46.1,8.56 46.52,8.79 C46.94,9.02 47.46,9.13 48.07,9.13 C48.41,9.13 48.77,9.1 49.17,9.04 C49.58,8.99 50.07,8.88 50.67,8.71 Z" id="路径"></path>
                    <path d="M52.06,11.26 C52.06,11.26 52.06,11.26 52.06,11.26 L52.33,7.08 L52.46,4.03 L52.5,2.67 C52.51,2.28 52.51,1.9 52.51,1.54 L52.5,0.81 C52.5,0.81 52.5,0.81 52.5,0.81 C53.24,0.82 53.8,0.83 54.17,0.83 C54.46,0.83 54.96,0.83 55.68,0.81 C55.68,0.81 55.68,0.81 55.68,0.81 C55.57,2.28 55.5,3.57 55.46,4.69 C55.46,4.69 55.46,4.69 55.46,4.69 L59.33,4.69 C59.33,4.69 59.33,4.69 59.33,4.69 C59.35,4.27 59.38,3.7 59.4,2.99 C59.42,2.28 59.43,1.79 59.43,1.53 C59.43,1.39 59.43,1.15 59.42,0.81 C59.42,0.81 59.42,0.81 59.42,0.81 L61.1,0.83 C61.28,0.83 61.77,0.83 62.59,0.81 C62.59,0.81 62.59,0.81 62.59,0.81 C62.42,3.43 62.31,5.39 62.27,6.67 C62.22,7.95 62.2,9.48 62.2,11.27 C62.2,11.27 62.2,11.27 62.2,11.27 L60.65,11.25 C60.42,11.25 59.86,11.25 58.99,11.27 C58.99,11.27 58.99,11.27 58.99,11.27 C59.11,10.06 59.19,8.64 59.23,7.03 C59.23,7.03 59.23,7.03 59.23,7.03 L55.36,7.03 C55.36,7.03 55.36,7.03 55.36,7.03 L55.24,11.27 C55.24,11.27 55.24,11.27 55.24,11.27 L53.59,11.25 C53.37,11.25 52.86,11.25 52.06,11.26 Z" id="路径"></path>
                    <path d="M62.66,11.26 C62.66,11.26 62.66,11.26 62.66,11.26 L63.25,10.16 L66.92,2.7 L67.31,1.87 C67.42,1.62 67.58,1.27 67.79,0.81 C67.79,0.81 67.79,0.81 67.79,0.81 C68.62,0.82 69.23,0.83 69.62,0.83 C70.29,0.83 70.91,0.83 71.47,0.81 C71.47,0.81 71.47,0.81 71.47,0.81 L72.51,4 L74.62,10.14 L75.03,11.26 C75.03,11.26 75.03,11.26 75.03,11.26 C74.21,11.25 73.71,11.24 73.54,11.24 C73.14,11.24 72.56,11.24 71.78,11.26 C71.78,11.26 71.78,11.26 71.78,11.26 C71.57,10.42 71.27,9.43 70.88,8.29 C70.88,8.29 70.88,8.29 70.88,8.29 L67.3,8.29 C67.3,8.29 67.3,8.29 67.3,8.29 C66.89,9.19 66.46,10.18 66.02,11.26 C66.02,11.26 66.02,11.26 66.02,11.26 C65.14,11.25 64.6,11.24 64.4,11.24 C64.04,11.25 63.46,11.25 62.66,11.26 Z M68.16,6.06 L70.37,6.06 C70.37,6.06 70.37,6.06 70.37,6.06 C69.82,4.26 69.52,3.27 69.47,3.09 C69.47,3.09 69.47,3.09 69.47,3.09 C69.16,3.84 68.89,4.45 68.68,4.93 L68.16,6.06 C68.16,6.06 68.16,6.06 68.16,6.06 Z" id="形状"></path>
                    <path d="M75.78,11.26 C75.78,11.26 75.78,11.26 75.78,11.26 L75.92,9.65 L76.2,4.2 L76.28,2 L76.28,0.81 C76.28,0.81 76.28,0.81 76.28,0.81 C77.02,0.82 77.66,0.83 78.23,0.83 C78.63,0.83 79.2,0.83 79.93,0.81 C79.93,0.81 79.93,0.81 79.93,0.81 L82.96,6.76 L83.38,7.63 C83.43,6.77 83.49,5.57 83.54,4.02 C83.6,2.47 83.62,1.4 83.62,0.81 C83.62,0.81 83.62,0.81 83.62,0.81 C84.2,0.82 84.67,0.83 85.02,0.83 C85.18,0.83 85.64,0.83 86.41,0.81 C86.41,0.81 86.41,0.81 86.41,0.81 L86.24,3.09 L85.92,9.43 L85.88,11.26 C85.88,11.26 85.88,11.26 85.88,11.26 C85.26,11.25 84.69,11.24 84.15,11.24 C83.7,11.24 83.09,11.24 82.3,11.26 C82.3,11.26 82.3,11.26 82.3,11.26 C82.05,10.76 81.87,10.4 81.75,10.17 L80.56,7.99 C80.17,7.27 79.81,6.59 79.47,5.94 C79.25,5.53 79.03,5.07 78.8,4.58 L78.65,8.21 L78.58,11.27 C78.58,11.27 78.58,11.27 78.58,11.27 C77.99,11.26 77.55,11.25 77.24,11.25 C76.98,11.25 76.49,11.25 75.78,11.26 Z" id="路径"></path>
                    <path d="M87.72,11.26 C87.72,11.26 87.72,11.26 87.72,11.26 L87.86,9.65 L88.14,4.2 L88.22,2 L88.22,0.81 C88.22,0.81 88.22,0.81 88.22,0.81 C88.96,0.82 89.6,0.83 90.17,0.83 C90.57,0.83 91.14,0.83 91.87,0.81 C91.87,0.81 91.87,0.81 91.87,0.81 L94.9,6.76 L95.32,7.63 C95.37,6.77 95.43,5.57 95.48,4.02 C95.54,2.47 95.56,1.4 95.56,0.81 C95.56,0.81 95.56,0.81 95.56,0.81 C96.14,0.82 96.61,0.83 96.96,0.83 C97.12,0.83 97.58,0.83 98.35,0.81 C98.35,0.81 98.35,0.81 98.35,0.81 L98.18,3.09 L97.86,9.43 L97.82,11.26 C97.82,11.26 97.82,11.26 97.82,11.26 C97.2,11.25 96.63,11.24 96.09,11.24 C95.64,11.24 95.03,11.24 94.24,11.26 C94.24,11.26 94.24,11.26 94.24,11.26 C93.99,10.76 93.81,10.4 93.69,10.17 L92.5,7.99 C92.11,7.27 91.75,6.59 91.41,5.94 C91.19,5.53 90.97,5.07 90.74,4.58 L90.59,8.21 L90.52,11.27 C90.52,11.27 90.52,11.27 90.52,11.27 C89.93,11.26 89.49,11.25 89.18,11.25 C88.92,11.25 88.43,11.25 87.72,11.26 Z" id="路径"></path>
                    <path d="M99.65,11.26 C99.65,11.26 99.65,11.26 99.65,11.26 C99.77,9.94 99.85,8.84 99.91,7.95 C99.96,7.06 100.02,5.88 100.07,4.41 C100.12,2.94 100.15,1.96 100.15,1.48 L100.14,0.81 C100.14,0.81 100.14,0.81 100.14,0.81 C101.26,0.82 102.61,0.83 104.19,0.83 C105.65,0.83 106.94,0.83 108.06,0.81 L108.05,1.06 C108.05,1.12 108.03,1.34 108.01,1.72 L107.97,2.55 C107.96,2.73 107.96,2.91 107.96,3.09 C107.05,3.05 106.28,3.03 105.66,3.03 C104.98,3.03 104.52,3.03 104.28,3.03 C104.04,3.03 103.67,3.04 103.16,3.06 C103.16,3.06 103.16,3.06 103.16,3.06 L103.07,4.82 C103.07,4.82 103.07,4.82 103.07,4.82 C103.63,4.84 104.28,4.84 105.02,4.84 C105.29,4.84 105.99,4.82 107.14,4.79 C107.14,4.79 107.14,4.79 107.14,4.79 C107.09,5.44 107.05,6.22 107.01,7.13 C107.01,7.13 107.01,7.13 107.01,7.13 C106.19,7.12 105.56,7.11 105.12,7.11 C104.47,7.11 103.74,7.13 102.93,7.16 C102.93,7.16 102.93,7.16 102.93,7.16 L102.85,9.02 C102.85,9.02 102.85,9.02 102.85,9.02 L103.67,9.02 C103.91,9.02 104.41,9.01 105.17,9 L106.64,8.96 C106.86,8.95 107.22,8.93 107.73,8.9 C107.73,8.9 107.73,8.9 107.73,8.9 C107.67,9.66 107.63,10.44 107.59,11.24 C107.59,11.24 107.59,11.24 107.59,11.24 C106.43,11.23 105.17,11.22 103.79,11.22 L100.66,11.23 L99.65,11.26 Z" id="路径"></path>
                    <path d="M109.17,11.26 C109.17,11.26 109.17,11.26 109.17,11.26 C109.29,10.05 109.37,9.07 109.43,8.31 C109.53,6.92 109.6,5.54 109.65,4.17 C109.7,2.8 109.73,1.68 109.73,0.8 C109.73,0.8 109.73,0.8 109.73,0.8 C110.37,0.81 110.94,0.82 111.44,0.82 C111.78,0.82 112.26,0.82 112.89,0.8 C112.89,0.8 112.89,0.8 112.89,0.8 L112.72,3.57 L112.51,7.91 L112.48,8.97 C112.48,8.97 112.48,8.97 112.48,8.97 C113.29,8.99 113.82,8.99 114.07,8.99 C115.32,8.99 116.26,8.97 116.9,8.94 C116.9,8.94 116.9,8.94 116.9,8.94 L116.74,11.25 C116.74,11.25 116.74,11.25 116.74,11.25 C115.49,11.24 114.31,11.23 113.18,11.23 C111.65,11.25 110.32,11.25 109.17,11.26 Z" id="路径"></path>
                </g>
            </g>
        </g>
    </g>
</svg>