<svg width="16" height="16" viewBox="0 0 16 16" fill="none" xmlns="http://www.w3.org/2000/svg">
<path d="M13 3.97698C13 3.63503 12.9998 3.46392 12.9316 3.33331C12.8717 3.21843 12.7765 3.12509 12.6589 3.06655C12.5252 3 12.3498 3 11.9998 3H3.99976C3.64972 3 3.47488 3 3.34119 3.06655C3.22359 3.12509 3.12804 3.21843 3.06812 3.33331C3 3.46392 3 3.63503 3 3.97698V4.42714C3 4.57648 3 4.65121 3.01727 4.72148C3.03258 4.78378 3.0579 4.84329 3.09216 4.89792C3.1308 4.95952 3.18494 5.01241 3.29297 5.11794L6.45718 8.20914C6.56527 8.31474 6.61902 8.36725 6.65767 8.42886C6.69194 8.48349 6.7176 8.54321 6.73291 8.60551C6.75 8.67507 6.75 8.74891 6.75 8.89523V11.799C6.75 12.3224 6.75 12.5843 6.86284 12.7419C6.96137 12.8795 7.11338 12.9713 7.28345 12.9959C7.47821 13.024 7.71794 12.9071 8.19714 12.673L8.69714 12.4288C8.89781 12.3308 8.9979 12.2816 9.0712 12.2085C9.13602 12.1438 9.18561 12.0662 9.21582 11.9806C9.24998 11.8838 9.25 11.774 9.25 11.5548V8.89977C9.25 8.75043 9.25 8.67578 9.26727 8.60551C9.28258 8.54321 9.3079 8.48349 9.34216 8.42886C9.38056 8.36766 9.43417 8.31529 9.54082 8.21109L9.54297 8.20914L12.7072 5.11794C12.8153 5.01234 12.869 4.95954 12.9077 4.89792C12.9419 4.84329 12.9676 4.78378 12.9829 4.72148C13 4.65192 13 4.578 13 4.43168V3.97698Z" stroke="white" stroke-opacity="0.6" stroke-linecap="round" stroke-linejoin="round"/>
</svg>
