<svg width="21" height="21" viewBox="0 0 21 21" fill="none" xmlns="http://www.w3.org/2000/svg">
<path d="M17.4912 8.89887H7.7349L17.2899 5.89761C18.0337 5.67011 18.4449 4.87386 18.2174 4.13886L17.6574 2.38011C17.4299 1.64511 16.6249 1.23386 15.8812 1.46136L2.9574 5.51261C2.21366 5.74011 1.8024 6.53637 2.02991 7.27137L2.5899 9.03012C2.63366 9.16137 2.6949 9.29262 2.7824 9.40637C2.5374 9.67761 2.39741 10.0276 2.39741 10.4126V18.0689C2.39741 18.9089 3.08865 19.6001 3.9374 19.6001H17.4912C18.3399 19.6001 19.0312 18.9089 19.0312 18.0689V10.4126C19.0312 9.57261 18.3399 8.89887 17.4912 8.89887ZM16.4412 2.59886C16.4849 2.63387 16.5286 2.66886 16.5462 2.72136L17.1061 4.48011C17.1499 4.60262 17.0712 4.74261 16.9486 4.78637L16.0737 5.05761L16.4412 2.59886ZM13.0987 3.54386L14.5774 3.07136L14.1924 5.63511L12.7137 6.10761L13.0987 3.54386ZM9.75615 4.59386L11.2349 4.12136L10.8499 6.68511L9.37116 7.15761L9.75615 4.59386ZM4.1649 8.79387L4.01616 8.83761C3.89366 8.88137 3.75365 8.80262 3.70991 8.68011L3.14115 6.93012C3.09741 6.80762 3.17615 6.66762 3.29865 6.62387L4.5324 6.23886L4.1649 8.79387ZM6.01991 8.20761L6.40491 5.64387L7.88366 5.17137L7.49865 7.74387L6.01991 8.20761ZM12.5299 14.7351L10.0449 16.8614C9.8874 16.9926 9.6774 17.0626 9.4674 17.0626C9.3624 17.0626 9.2574 17.0451 9.1524 17.0101C8.84616 16.9051 8.64491 16.6601 8.64491 16.3714V12.1276C8.64491 11.8476 8.84616 11.5939 9.1524 11.4889C9.45866 11.3839 9.79991 11.4364 10.0362 11.6376L12.5124 13.7551C12.8362 14.0264 12.8362 14.4639 12.5299 14.7351Z" fill="url(#paint0_linear_52_86)"/>
<defs>
<linearGradient id="paint0_linear_52_86" x1="3.43371" y1="7.1465" x2="18.6734" y2="7.91074" gradientUnits="userSpaceOnUse">
<stop stop-color="#46B1FF"/>
<stop offset="1" stop-color="#2674F5"/>
</linearGradient>
</defs>
</svg>
