<svg width="20" height="20" viewBox="0 0 20 20" fill="none" xmlns="http://www.w3.org/2000/svg">
<path d="M16.9979 3.00082C16.0985 2.10338 14.8798 1.59937 13.6093 1.59937C12.3387 1.59937 11.12 2.10338 10.2206 3.00082L3.0012 10.2208C2.10241 11.1196 1.59745 12.3385 1.59741 13.6096C1.59737 14.8806 2.10225 16.0996 3.00098 16.9984C3.89971 17.8972 5.11868 18.4021 6.38972 18.4022C7.66076 18.4022 8.87976 17.8973 9.77855 16.9986L16.998 9.77864C17.8955 8.8791 18.3994 7.66034 18.3994 6.38971C18.3994 5.11908 17.8954 3.90032 16.9979 3.00082ZM5.36894 12.673C5.2219 12.8202 5.11023 12.9989 5.04237 13.1956C4.97452 13.3923 4.95224 13.6019 4.97724 13.8084C4.99214 13.9456 4.9639 14.084 4.89645 14.2043C4.829 14.3247 4.7257 14.421 4.60093 14.4799C4.50375 14.5266 4.39679 14.5493 4.28902 14.5461C4.18125 14.5429 4.07581 14.514 3.98156 14.4616C3.8873 14.4092 3.80698 14.335 3.74733 14.2452C3.68768 14.1554 3.65043 14.0526 3.63872 13.9454C3.59346 13.5401 3.63996 13.1297 3.77477 12.7448C3.90959 12.3599 4.12926 12.0102 4.41753 11.7216L5.47433 10.6645C5.53677 10.6021 5.6109 10.5525 5.69249 10.5187C5.77407 10.4849 5.86152 10.4676 5.94983 10.4676C6.03814 10.4676 6.12558 10.4849 6.20717 10.5187C6.28876 10.5525 6.36289 10.6021 6.42533 10.6645C6.48778 10.727 6.53733 10.8011 6.57113 10.8827C6.60493 10.9643 6.62233 11.0518 6.62233 11.1401C6.62233 11.2285 6.60493 11.3159 6.57113 11.3975C6.53733 11.4791 6.48778 11.5533 6.42533 11.6157L5.36894 12.673ZM11.4659 12.4391L7.57464 8.46471C7.44985 8.33726 7.3808 8.16545 7.38268 7.98709C7.38455 7.80873 7.4572 7.63842 7.58464 7.51362C7.64774 7.45182 7.72238 7.40306 7.80433 7.37012C7.88627 7.33718 7.97389 7.3207 8.0622 7.32163C8.15051 7.32256 8.23777 7.34087 8.319 7.37553C8.40023 7.41019 8.47384 7.46051 8.53562 7.52361L12.4269 11.498C12.5517 11.6255 12.6207 11.7973 12.6188 11.9756C12.617 12.154 12.5443 12.3243 12.4169 12.4491C12.3538 12.5109 12.2792 12.5597 12.1972 12.5926C12.1153 12.6256 12.0277 12.642 11.9394 12.6411C11.8511 12.6402 11.7638 12.6219 11.6826 12.5872C11.6013 12.5526 11.5277 12.5022 11.4659 12.4391Z" fill="url(#paint0_linear_52_2438)"/>
<defs>
<linearGradient id="paint0_linear_52_2438" x1="3.04133" y1="6.90552" x2="18.0419" y2="7.70787" gradientUnits="userSpaceOnUse">
<stop stop-color="#46B1FF"/>
<stop offset="1" stop-color="#2674F5"/>
</linearGradient>
</defs>
</svg>
