<svg width="18" height="18" viewBox="0 0 18 18" fill="none" xmlns="http://www.w3.org/2000/svg">
<path d="M15.9979 2.0007C15.0985 1.10326 13.8798 0.599243 12.6093 0.599243C11.3387 0.599243 10.12 1.10326 9.22061 2.0007L2.00117 9.2207C1.10238 10.1194 0.597424 11.3384 0.597382 12.6094C0.597339 13.8805 1.10222 15.0995 2.00095 15.9983C2.89968 16.8971 4.11865 17.402 5.38969 17.4021C6.66073 17.4021 7.87973 16.8972 8.77852 15.9985L15.998 8.77851C16.8954 7.87898 17.3994 6.66022 17.3994 5.38959C17.3993 4.11896 16.8953 2.9002 15.9979 2.0007ZM4.36891 11.6729C4.22187 11.8201 4.1102 11.9988 4.04234 12.1955C3.97448 12.3922 3.95221 12.6017 3.97721 12.8083C3.99211 12.9455 3.96387 13.0839 3.89642 13.2042C3.82897 13.3246 3.72567 13.4209 3.6009 13.4798C3.50372 13.5265 3.39676 13.5492 3.28899 13.546C3.18122 13.5428 3.07578 13.5138 2.98153 13.4615C2.88727 13.4091 2.80695 13.3349 2.7473 13.2451C2.68764 13.1553 2.6504 13.0525 2.63869 12.9453C2.59343 12.54 2.63993 12.1296 2.77474 11.7447C2.90956 11.3597 3.12923 11.0101 3.4175 10.7215L4.4743 9.66441C4.53674 9.60196 4.61087 9.55242 4.69246 9.51863C4.77404 9.48483 4.86149 9.46743 4.9498 9.46743C5.03811 9.46743 5.12555 9.48483 5.20714 9.51863C5.28873 9.55242 5.36286 9.60196 5.4253 9.66441C5.48775 9.72687 5.5373 9.80102 5.5711 9.88262C5.6049 9.96422 5.6223 10.0517 5.6223 10.14C5.6223 10.2283 5.6049 10.3158 5.5711 10.3974C5.5373 10.479 5.48775 10.5532 5.4253 10.6156L4.36891 11.6729ZM10.4659 11.439L6.57461 7.46459C6.44982 7.33713 6.38077 7.16533 6.38265 6.98697C6.38452 6.80861 6.45717 6.63829 6.58461 6.51349C6.64771 6.4517 6.72235 6.40294 6.80429 6.37C6.88624 6.33706 6.97386 6.32058 7.06217 6.32151C7.15048 6.32244 7.23774 6.34075 7.31897 6.37541C7.4002 6.41007 7.47381 6.46039 7.53559 6.52349L11.4269 10.4979C11.5517 10.6254 11.6207 10.7972 11.6188 10.9755C11.6169 11.1539 11.5443 11.3242 11.4169 11.449C11.3538 11.5108 11.2792 11.5596 11.1972 11.5925C11.1153 11.6254 11.0276 11.6419 10.9393 11.641C10.851 11.6401 10.7638 11.6217 10.6825 11.5871C10.6013 11.5524 10.5277 11.5021 10.4659 11.439Z" fill="url(#paint0_linear_2017_5082)"/>
<defs>
<linearGradient id="paint0_linear_2017_5082" x1="17.3994" y1="9.00066" x2="0.596736" y2="8.96807" gradientUnits="userSpaceOnUse">
<stop stop-color="#5C97F8"/>
<stop offset="0.865" stop-color="#C377D2"/>
</linearGradient>
</defs>
</svg>
