<svg width="58" height="25" viewBox="0 0 58 25" fill="none" xmlns="http://www.w3.org/2000/svg">
<path d="M0 12.5C0 5.59644 5.59644 0 12.5 0H58V25H12.5C5.59644 25 0 19.4036 0 12.5Z" fill="url(#paint0_linear_3516_10590)"/>
<path d="M0 12.5C0 5.59644 5.59644 0 12.5 0H58V25H12.5C5.59644 25 0 19.4036 0 12.5Z" fill="url(#paint1_linear_3516_10590)"/>
<path d="M12.3274 7.5C13.4932 7.5 14.5055 8.11556 15 9.01156C15.4945 8.11556 16.5068 7.5 17.6723 7.5C19.4424 7.5 20.5 9.07552 20.5 10.5988C20.5 14.2061 15.3797 17.3239 15.1617 17.4549C15.1117 17.485 15.056 17.5 15 17.5C14.944 17.5 14.8883 17.485 14.8383 17.4549C14.6203 17.3239 9.5 14.2061 9.5 10.5988C9.49997 9.07552 10.5576 7.5 12.3274 7.5Z" stroke="#D00000" stroke-width="2"/>
<path d="M31.472 11.508C32.312 12.504 32.96 13.38 33.404 14.124L32.336 14.868C31.88 14.052 31.244 13.14 30.44 12.156L31.472 11.508ZM31.22 6.624L32.48 6.78C32.348 7.368 32.192 7.92 32.012 8.448H35.636C35.636 12.756 35.576 15.408 35.456 16.416C35.324 17.292 34.736 17.736 33.68 17.736C33.368 17.736 32.84 17.712 32.084 17.664L31.772 16.512C32.42 16.56 32.984 16.584 33.464 16.584C33.932 16.584 34.208 16.332 34.28 15.828C34.352 15.24 34.388 13.2 34.412 9.708H31.472C31.064 10.524 30.572 11.256 29.996 11.904L29.216 10.872C30.2 9.72 30.872 8.304 31.22 6.624ZM29.54 15.12V16.392C28.292 16.8 26.864 17.124 25.268 17.376L25.112 16.128C26.804 15.876 28.28 15.54 29.54 15.12ZM26.888 6.576L28.112 7.044C27.572 8.448 27.02 9.6 26.468 10.5C26.864 10.452 27.26 10.392 27.668 10.32C27.908 9.876 28.16 9.396 28.424 8.868L29.636 9.324C28.58 11.232 27.692 12.624 26.972 13.512C27.764 13.344 28.58 13.128 29.396 12.864V13.98C28.004 14.436 26.684 14.736 25.448 14.892L25.124 13.74C25.34 13.644 25.532 13.512 25.688 13.368C26.048 13.008 26.492 12.372 27.02 11.472C26.468 11.568 25.904 11.664 25.304 11.76L24.992 10.596C25.184 10.5 25.364 10.344 25.532 10.104C26.048 9.024 26.504 7.848 26.888 6.576ZM42.044 6.612H42.956C44.456 8.256 46.184 9.552 48.152 10.488L47.468 11.712C46.772 11.352 46.124 10.944 45.512 10.512V11.376H39.524V10.464C38.888 10.908 38.204 11.328 37.484 11.724L36.812 10.5C38.912 9.468 40.652 8.172 42.044 6.612ZM39.884 10.2H45.104C44.12 9.468 43.256 8.652 42.5 7.74C41.756 8.628 40.892 9.456 39.884 10.2ZM37.64 12.6H47.384V13.824H41.804C41.3 14.76 40.712 15.588 40.04 16.284C41.66 16.188 43.244 16.056 44.78 15.876C44.432 15.444 44.06 15 43.664 14.544L44.636 13.932C45.728 15.108 46.568 16.14 47.168 17.004L46.124 17.736C45.92 17.424 45.704 17.1 45.476 16.788C43.616 17.076 41.3 17.304 38.516 17.472L38.18 16.38C38.48 16.308 38.696 16.188 38.828 16.044C39.428 15.336 39.932 14.592 40.352 13.824H37.64V12.6Z" fill="#D00000"/>
<defs>
<linearGradient id="paint0_linear_3516_10590" x1="58" y1="12.5" x2="0" y2="12.5" gradientUnits="userSpaceOnUse">
<stop stop-color="#FF2D54"/>
<stop offset="1" stop-color="#FF2DA1"/>
</linearGradient>
<linearGradient id="paint1_linear_3516_10590" x1="51.1765" y1="5.14708" x2="36.0198" y2="35.4841" gradientUnits="userSpaceOnUse">
<stop stop-color="#FF925F"/>
<stop offset="1" stop-color="#F7CE70"/>
</linearGradient>
</defs>
</svg>
