<svg width="22" height="22" viewBox="0 0 22 22" fill="none" xmlns="http://www.w3.org/2000/svg">
<path d="M16.6353 2.92041L16.9184 2.95844L16.6714 4.79817L16.3882 4.76014L16.6353 2.92041Z" fill="url(#paint0_linear_52_2416)"/>
<path d="M17.5909 3.84106L17.5529 4.12427L15.7131 3.8772L15.7512 3.59399L17.5909 3.84106Z" fill="url(#paint1_linear_52_2416)"/>
<path d="M4.60645 17.4172L4.83598 17.3318L5.39187 18.8258L5.16233 18.9112L4.60645 17.4172Z" fill="url(#paint2_linear_52_2416)"/>
<path d="M5.74891 17.7114L5.83431 17.941L4.34028 18.4969L4.25488 18.2673L5.74891 17.7114Z" fill="url(#paint3_linear_52_2416)"/>
<path d="M17.9822 5.44653L18.0817 5.50179L17.7199 6.15367L17.6204 6.09841L17.9822 5.44653Z" fill="url(#paint4_linear_52_2416)"/>
<path d="M18.2039 5.93113L18.1487 6.03069L17.4968 5.66889L17.5521 5.56934L18.2039 5.93113Z" fill="url(#paint5_linear_52_2416)"/>
<path d="M13.6878 18.0361L13.6147 17.8342C13.9606 17.7096 13.9198 16.9727 13.8747 16.6998C13.7866 16.0982 14.0444 15.7631 14.0552 15.748L14.2228 15.8813C14.2142 15.892 14.0101 16.1648 14.0853 16.6676C14.096 16.7105 14.2722 17.8277 13.6878 18.0361Z" fill="url(#paint6_linear_52_2416)"/>
<path d="M14.4869 15.9951C14.4869 15.9951 14.2033 15.8318 14.0378 15.7824C13.8724 15.7329 13.6189 15.7222 13.6189 15.7222C13.4621 15.6728 13.3761 15.4945 13.4298 15.3269C13.4836 15.1593 13.6554 15.0626 13.8123 15.112C13.8123 15.112 14.0873 15.1593 14.2269 15.2044C14.3666 15.2495 14.6802 15.387 14.6802 15.387C14.8371 15.4365 14.923 15.6148 14.8693 15.7824C14.8156 15.9478 14.6437 16.0445 14.4869 15.9951Z" fill="url(#paint7_linear_52_2416)"/>
<path d="M19.9224 8.52071C19.9224 8.52071 18.788 5.5795 16.0015 7.86544C16.0015 7.86544 14.8951 4.66641 12.1622 6.78048C12.1622 6.78048 10.8238 7.69356 11.2857 10.7572C11.2857 10.7572 11.6595 12.3836 14.2806 15.1422C14.2806 15.1422 17.5849 13.967 18.629 12.6156C18.6269 12.6156 20.6937 10.7164 19.9224 8.52071ZM19.0802 10.7014C19.0351 10.7895 18.9277 10.8238 18.8396 10.7787C18.7988 10.7551 18.7708 10.7186 18.7579 10.6734C18.7451 10.6283 18.7515 10.5811 18.7751 10.5402C18.9535 10.2072 19.0394 9.83126 19.0222 9.45313C19.0072 9.21895 18.9427 8.98907 18.8331 8.78067C18.7386 8.6002 18.5968 8.44981 18.4206 8.34454C18.2638 8.27364 18.0941 8.23926 17.9222 8.24786C17.8277 8.25001 17.746 8.17696 17.7417 8.08243C17.7353 7.9879 17.8062 7.90411 17.9029 7.89552C18.4206 7.86114 18.9105 8.14259 19.1382 8.61094C19.2757 8.86231 19.3509 9.14161 19.3595 9.42735C19.3939 9.86993 19.2972 10.3147 19.0802 10.7014Z" fill="url(#paint8_linear_52_2416)"/>
<path d="M14.2505 15.2668L14.2032 15.2153C12.8411 13.7822 12.0935 12.6565 11.7068 11.9668C11.2835 11.2106 11.1847 10.7981 11.1804 10.7809L11.1782 10.7723C10.9355 9.16525 11.1933 8.14689 11.4511 7.57541C11.7261 6.9674 12.0591 6.72033 12.0978 6.69455C12.9421 6.04142 13.7241 5.81799 14.4245 6.02639C15.3827 6.31213 15.8876 7.3176 16.0466 7.69142C16.9167 7.01037 17.7202 6.76115 18.4378 6.95021C19.5292 7.2381 20.0019 8.43264 20.0212 8.4842L20.0234 8.48635C20.3499 9.41447 20.2232 10.4371 19.6581 11.4447C19.2564 12.1623 18.773 12.6264 18.7064 12.6887C17.6515 14.0465 14.4503 15.1959 14.315 15.2453L14.2505 15.2668ZM11.3909 10.7379C11.4017 10.7787 11.5091 11.1783 11.9023 11.8787C12.2761 12.5469 13.0001 13.6319 14.3085 15.0176C14.7769 14.8436 17.6107 13.7565 18.5409 12.549L18.5474 12.5426L18.5538 12.5362C18.5581 12.5319 19.0652 12.0613 19.4734 11.333C20.0126 10.3705 20.1286 9.43596 19.8214 8.55725C19.8042 8.51428 19.353 7.40998 18.382 7.15432C17.7052 6.976 16.9275 7.2424 16.0681 7.94709L15.9499 8.04592L15.9005 7.89982C15.8962 7.88693 15.4193 6.54416 14.3644 6.23049C13.7327 6.04357 13.0152 6.25627 12.2288 6.86428L12.2245 6.86857C12.2224 6.87072 11.9023 7.09631 11.6423 7.68068C11.3974 8.22424 11.1589 9.19533 11.3909 10.7379Z" fill="url(#paint9_linear_52_2416)"/>
<path d="M7.81824 5.70616C7.81824 5.70616 5.07038 2.24503 2.39343 5.863C2.39343 5.863 1.03132 7.48507 2.88757 11.0321C2.88757 11.0321 4.03913 12.8648 8.57019 15.2087C8.57019 15.2087 12.3751 12.5103 13.1721 10.4671C13.1721 10.4671 15.0735 7.3669 13.1721 4.99503C13.1721 4.99718 10.4952 1.85831 7.81824 5.70616Z" fill="url(#paint10_linear_52_2416)"/>
<path d="M8.57874 15.3357L8.52074 15.3056C6.17035 14.0896 4.74164 13.0111 3.95746 12.3236C3.10238 11.5716 2.80804 11.1097 2.79515 11.0904L2.79085 11.0839C2.36332 10.2654 2.07113 9.48117 1.92074 8.75285C1.80042 8.16633 1.77249 7.61203 1.83695 7.10715C1.94437 6.26496 2.27308 5.84172 2.30746 5.8009C3.12601 4.69446 4.03695 4.12727 5.01664 4.11008C5.69124 4.09934 6.40453 4.36145 7.07914 4.86848C7.42933 5.13059 7.68285 5.39485 7.8096 5.53664C8.65824 4.36145 9.59496 3.74055 10.594 3.69113C11.2235 3.66106 11.883 3.86516 12.5018 4.2841C12.9659 4.59778 13.2409 4.91789 13.2537 4.93293L13.2559 4.93508C13.7028 5.49153 13.9799 6.13391 14.0809 6.84289C14.1625 7.40793 14.1303 8.01594 13.9907 8.65188C13.7629 9.68098 13.3246 10.4308 13.2688 10.5232C12.9293 11.3847 12.0463 12.4503 10.6434 13.6921C9.59925 14.6159 8.64105 15.297 8.63246 15.3034L8.57874 15.3357ZM2.97992 10.9786C3.0057 11.0195 3.30863 11.4685 4.11214 12.1732C4.87914 12.8456 6.27347 13.8962 8.56156 15.0843C9.02347 14.7491 12.3471 12.2892 13.0733 10.4308L13.0776 10.4222L13.0819 10.4136C13.0862 10.405 13.5524 9.63586 13.7823 8.59387C14.0873 7.20813 13.8553 6.02219 13.0905 5.06613C13.0539 5.02531 11.9991 3.83293 10.6047 3.90168C9.64222 3.94895 8.73558 4.57844 7.90628 5.76867L7.82464 5.88684L7.73441 5.77297C7.72152 5.75578 6.56136 4.32063 5.06175 4.32063H5.02093C4.11214 4.33567 3.25707 4.87707 2.48148 5.92766L2.47718 5.93196C2.47503 5.93625 2.15062 6.33586 2.04964 7.15012C1.95511 7.90637 2.04105 9.18469 2.97992 10.9786Z" fill="url(#paint11_linear_52_2416)"/>
<path d="M9.18896 16.1648C9.18896 16.1648 8.75283 16.0767 8.51865 16.0767C8.28447 16.0767 7.95146 16.1648 7.95146 16.1648C7.72803 16.1648 7.54541 15.9822 7.54541 15.7587C7.54541 15.5353 7.72803 15.3527 7.95146 15.3527C7.95146 15.3527 8.32744 15.3054 8.52725 15.3054C8.72705 15.3054 9.18896 15.3527 9.18896 15.3527C9.4124 15.3527 9.59502 15.5353 9.59502 15.7587C9.59502 15.9822 9.4124 16.1648 9.18896 16.1648Z" fill="url(#paint12_linear_52_2416)"/>
<path d="M8.9634 19.1147L8.83449 18.9429C9.25343 18.6249 8.8925 17.6602 8.71847 17.3165C8.36398 16.5882 8.55519 16.0618 8.56379 16.0403L8.76574 16.1155C8.76359 16.1198 8.60031 16.5817 8.91183 17.2198C8.93761 17.2757 9.61008 18.6227 8.9634 19.1147ZM10.3105 5.39052C10.1816 5.42704 10.0484 5.35399 10.0075 5.22723C9.96672 5.10048 10.0355 4.96298 10.1622 4.91786C10.8562 4.69227 11.6167 4.90927 12.0872 5.46571C12.3601 5.76005 12.5577 6.11454 12.6673 6.50126C12.865 7.09208 12.8843 7.72802 12.7232 8.33173C12.6909 8.46493 12.5577 8.54872 12.4245 8.51864C12.3622 8.50145 12.3085 8.46063 12.2763 8.40263C12.2441 8.34677 12.2376 8.27802 12.2548 8.21571C12.3837 7.70009 12.3708 7.16083 12.2183 6.65165C12.1173 6.33798 11.9519 6.04794 11.7327 5.80087C11.5415 5.58602 11.2966 5.43134 11.0216 5.3497C10.7853 5.30887 10.5425 5.32177 10.3105 5.39052Z" fill="url(#paint13_linear_52_2416)"/>
<defs>
<linearGradient id="paint0_linear_52_2416" x1="16.4338" y1="3.51339" x2="16.9084" y2="3.52056" gradientUnits="userSpaceOnUse">
<stop stop-color="#46B1FF"/>
<stop offset="1" stop-color="#2674F5"/>
</linearGradient>
<linearGradient id="paint1_linear_52_2416" x1="15.8745" y1="3.76145" x2="17.4975" y2="4.06887" gradientUnits="userSpaceOnUse">
<stop stop-color="#46B1FF"/>
<stop offset="1" stop-color="#2674F5"/>
</linearGradient>
<linearGradient id="paint2_linear_52_2416" x1="4.67394" y1="17.8306" x2="5.37667" y2="17.8493" gradientUnits="userSpaceOnUse">
<stop stop-color="#46B1FF"/>
<stop offset="1" stop-color="#2674F5"/>
</linearGradient>
<linearGradient id="paint3_linear_52_2416" x1="4.39061" y1="17.9595" x2="5.78856" y2="18.1098" gradientUnits="userSpaceOnUse">
<stop stop-color="#46B1FF"/>
<stop offset="1" stop-color="#2674F5"/>
</linearGradient>
<linearGradient id="paint4_linear_52_2416" x1="17.66" y1="5.66984" x2="18.0726" y2="5.68424" gradientUnits="userSpaceOnUse">
<stop stop-color="#46B1FF"/>
<stop offset="1" stop-color="#2674F5"/>
</linearGradient>
<linearGradient id="paint5_linear_52_2416" x1="17.5576" y1="5.71503" x2="18.1865" y2="5.76659" gradientUnits="userSpaceOnUse">
<stop stop-color="#46B1FF"/>
<stop offset="1" stop-color="#2674F5"/>
</linearGradient>
<linearGradient id="paint6_linear_52_2416" x1="13.667" y1="16.4706" x2="14.2113" y2="16.4783" gradientUnits="userSpaceOnUse">
<stop stop-color="#46B1FF"/>
<stop offset="1" stop-color="#2674F5"/>
</linearGradient>
<linearGradient id="paint7_linear_52_2416" x1="13.5403" y1="15.3861" x2="14.848" y2="15.4994" gradientUnits="userSpaceOnUse">
<stop stop-color="#46B1FF"/>
<stop offset="1" stop-color="#2674F5"/>
</linearGradient>
<linearGradient id="paint8_linear_52_2416" x1="11.9541" y1="8.92676" x2="19.9062" y2="9.3438" gradientUnits="userSpaceOnUse">
<stop stop-color="#46B1FF"/>
<stop offset="1" stop-color="#2674F5"/>
</linearGradient>
<linearGradient id="paint9_linear_52_2416" x1="11.8648" y1="8.89279" x2="20.0074" y2="9.31916" gradientUnits="userSpaceOnUse">
<stop stop-color="#46B1FF"/>
<stop offset="1" stop-color="#2674F5"/>
</linearGradient>
<linearGradient id="paint10_linear_52_2416" x1="2.95194" y1="7.39627" x2="13.7558" y2="8.00897" gradientUnits="userSpaceOnUse">
<stop stop-color="#46B1FF"/>
<stop offset="1" stop-color="#2674F5"/>
</linearGradient>
<linearGradient id="paint11_linear_52_2416" x1="2.86213" y1="7.36637" x2="13.8592" y2="7.98867" gradientUnits="userSpaceOnUse">
<stop stop-color="#46B1FF"/>
<stop offset="1" stop-color="#2674F5"/>
</linearGradient>
<linearGradient id="paint12_linear_52_2416" x1="7.72155" y1="15.5768" x2="9.52726" y2="15.8072" gradientUnits="userSpaceOnUse">
<stop stop-color="#46B1FF"/>
<stop offset="1" stop-color="#2674F5"/>
</linearGradient>
<linearGradient id="paint13_linear_52_2416" x1="8.87646" y1="9.34085" x2="12.7492" y2="9.4036" gradientUnits="userSpaceOnUse">
<stop stop-color="#46B1FF"/>
<stop offset="1" stop-color="#2674F5"/>
</linearGradient>
</defs>
</svg>
