<svg width="20" height="18" viewBox="0 0 20 18" fill="none" xmlns="http://www.w3.org/2000/svg">
<path d="M15.6162 1.062C15.6267 0.983802 15.6986 0.928923 15.7768 0.939423C15.855 0.949924 15.9099 1.02183 15.8994 1.10003L15.6904 2.65658C15.6799 2.73477 15.608 2.78965 15.5298 2.77915C15.4516 2.76865 15.3967 2.69674 15.4072 2.61854L15.6162 1.062Z" fill="url(#paint0_linear_2017_5060)"/>
<path d="M16.4493 1.82205C16.5275 1.83255 16.5824 1.90446 16.5719 1.98266C16.5614 2.06087 16.4895 2.11576 16.4113 2.10525L14.8547 1.89622C14.7765 1.88571 14.7216 1.8138 14.7321 1.7356C14.7426 1.65739 14.8146 1.60251 14.8928 1.61301L16.4493 1.82205Z" fill="url(#paint1_linear_2017_5060)"/>
<path d="M3.64915 15.532C3.62556 15.4686 3.65782 15.3981 3.72121 15.3745C3.7846 15.3509 3.85511 15.3832 3.87869 15.4466L4.34917 16.711C4.37275 16.7744 4.34049 16.8449 4.27711 16.8685C4.21372 16.8921 4.14321 16.8598 4.11963 16.7965L3.64915 15.532Z" fill="url(#paint2_linear_2017_5060)"/>
<path d="M4.63414 15.7541C4.69752 15.7305 4.76802 15.7628 4.79161 15.8262C4.81519 15.8896 4.78292 15.9601 4.71954 15.9837L3.45505 16.4541C3.39167 16.4777 3.32117 16.4455 3.29758 16.3821C3.274 16.3187 3.30627 16.2482 3.36965 16.2246L4.63414 15.7541Z" fill="url(#paint3_linear_2017_5060)"/>
<path d="M16.9545 3.49631C16.9698 3.46882 17.0044 3.4589 17.0319 3.47416C17.0594 3.48942 17.0693 3.52408 17.0541 3.55157L16.7475 4.10389C16.7323 4.13138 16.6976 4.1413 16.6701 4.12604C16.6426 4.11078 16.6327 4.07612 16.648 4.04863L16.9545 3.49631Z" fill="url(#paint4_linear_2017_5060)"/>
<path d="M17.1542 3.9035C17.1817 3.91876 17.1916 3.95342 17.1763 3.98091C17.1611 4.0084 17.1264 4.01832 17.0989 4.00306L16.5466 3.69652C16.5191 3.68126 16.5092 3.64661 16.5245 3.61912C16.5397 3.59162 16.5744 3.58171 16.6019 3.59696L17.1542 3.9035Z" fill="url(#paint5_linear_2017_5060)"/>
<path d="M12.7842 15.9897C12.7339 16.021 12.6715 15.9911 12.6514 15.9354C12.6312 15.8795 12.662 15.8187 12.707 15.7798C12.9525 15.5673 12.9153 14.9455 12.8747 14.6998C12.824 14.3532 12.888 14.0951 12.9535 13.9356C12.9977 13.828 13.1316 13.8088 13.2228 13.8813C13.2142 13.892 13.0101 14.1648 13.0853 14.6676C13.0954 14.708 13.2518 15.6987 12.7842 15.9897Z" fill="url(#paint6_linear_2017_5060)"/>
<path d="M13.851 13.8275C13.7226 14.0874 13.3669 13.9055 13.096 13.8024C13.0755 13.7946 13.056 13.7878 13.0378 13.7824C12.7681 13.7018 12.3814 13.6671 12.4164 13.3877C12.4189 13.3675 12.4234 13.3471 12.4298 13.3269C12.4531 13.2545 12.4983 13.1953 12.5549 13.1554C12.7022 13.0517 12.9019 13.1248 13.0774 13.165C13.132 13.1774 13.1854 13.191 13.2269 13.2044C13.2909 13.2251 13.3914 13.2651 13.4815 13.3025C13.6144 13.3576 13.7722 13.3957 13.8434 13.5208C13.8863 13.596 13.8986 13.6908 13.8693 13.7824C13.8642 13.798 13.8581 13.8131 13.851 13.8275Z" fill="url(#paint7_linear_2017_5060)"/>
<path d="M18.9335 6.55276C18.9263 6.53164 18.9303 6.54106 18.9222 6.52028C18.0828 4.36842 13.2082 3.31698 11.3274 4.6577C11.2736 4.69606 11.1353 4.79846 11.0863 4.8428C10.815 5.08822 9.92719 6.10014 10.2639 8.60442C10.2774 8.70524 10.2968 8.80582 10.3294 8.90217C10.462 9.29324 10.9474 10.4613 12.4567 12.2292C12.9418 12.7974 13.0886 13.2279 13.7821 12.95C15.2396 12.3659 19.2533 8.74407 19.0753 7.18399C19.0517 6.97746 19.006 6.76656 18.9335 6.55276ZM18.0802 8.70137C18.0351 8.78946 17.9277 8.82384 17.8396 8.77872C17.7988 8.75509 17.7708 8.71856 17.7579 8.67344C17.7451 8.62833 17.7515 8.58106 17.7751 8.54024C17.9535 8.20723 18.0394 7.83126 18.0222 7.45313C18.0072 7.21895 17.9427 6.98907 17.8331 6.78067C17.7386 6.6002 17.5968 6.44981 17.4206 6.34454C17.2638 6.27364 17.0941 6.23926 16.9222 6.24786C16.8277 6.25001 16.746 6.17696 16.7417 6.08243C16.7353 5.9879 16.8062 5.90411 16.9029 5.89552C17.4206 5.86114 17.9105 6.14259 18.1382 6.61094C18.2757 6.86231 18.3509 7.14161 18.3595 7.42735C18.3939 7.86993 18.2972 8.31466 18.0802 8.70137Z" fill="url(#paint8_linear_2017_5060)"/>
<path d="M13.315 13.2453C13.2758 13.2584 13.2325 13.2472 13.2046 13.2167L13.2032 13.2153C11.8411 11.7822 11.0935 10.6565 10.7068 9.96682C10.2835 9.21057 10.1847 8.79807 10.1804 8.78088L10.1782 8.77228C9.93547 7.16525 10.1933 6.14689 10.4511 5.57541C10.7261 4.9674 11.0591 4.72033 11.0978 4.69455C11.9421 4.04142 12.7241 3.81799 13.4245 4.02639C14.584 4.37215 16.0482 4.72863 17.2445 4.91018C17.3096 4.92007 17.374 4.93341 17.4378 4.95021C18.5234 5.23657 18.9968 6.41995 19.0209 6.48328C19.0212 6.48419 19.0216 6.48456 19.0223 6.48525C19.023 6.48597 19.0235 6.48685 19.0239 6.48782C19.3498 7.41555 19.2229 8.43766 18.6581 9.44475C18.4053 9.89623 18.1202 10.2474 17.927 10.4612C17.7854 10.6178 17.6449 10.7756 17.4979 10.9271C16.2838 12.1785 13.4423 13.1988 13.315 13.2453ZM10.3909 8.73791C10.4017 8.77873 10.5091 9.17834 10.9023 9.87873C11.0657 10.1709 11.2962 10.5428 11.6132 10.9848C12.5493 12.2896 14.3115 12.6978 15.7193 11.9252C16.4506 11.524 17.1575 11.0467 17.5409 10.549L17.5474 10.5426L17.5538 10.5362C17.5581 10.5319 18.0652 10.0613 18.4734 9.33303C19.0126 8.37053 19.1286 7.43596 18.8214 6.55725C18.8042 6.51428 18.353 5.40998 17.382 5.15432C16.7052 4.976 15.9275 5.2424 15.0681 5.94709C15.0112 5.99465 14.9243 5.97005 14.9005 5.89982C14.8962 5.88693 14.4193 4.54416 13.3644 4.23049C12.7327 4.04357 12.0152 4.25627 11.2288 4.86428L11.2245 4.86857C11.2224 4.87072 10.9023 5.09631 10.6423 5.68068C10.3974 6.22424 10.1589 7.19533 10.3909 8.73791Z" fill="url(#paint9_linear_2017_5060)"/>
<path d="M9.30659 1.82562C8.29374 1.99728 6.1365 2.87447 5.19493 2.46366C4.18326 2.02228 2.82078 2.00378 1.46954 3.76206C1.41957 3.82707 1.36741 3.89333 1.3237 3.96271C1.07454 4.35812 0.320085 5.93976 1.81427 8.88978C1.8618 8.98363 1.9156 9.07669 1.97956 9.16021C2.25387 9.51837 3.1916 10.597 5.44929 12.0069C6.71867 12.7995 8.34794 12.6762 9.47404 11.6905C10.4956 10.7963 11.6382 9.64492 12.1032 8.62935C12.1523 8.52232 12.2027 8.41793 12.2582 8.31416C12.3721 8.10153 12.5781 7.68087 12.7468 7.13907C13.1773 5.75607 10.7347 1.58358 9.30659 1.82562Z" fill="url(#paint10_linear_2017_5060)"/>
<path d="M7.63246 13.3034C7.59908 13.3235 7.5577 13.3248 7.52314 13.3068L7.52074 13.3056C5.17035 12.0896 3.74164 11.0111 2.95746 10.3236C2.10238 9.5716 1.80804 9.10969 1.79515 9.09035L1.79085 9.08391C1.36332 8.26535 1.07113 7.48117 0.920737 6.75285C0.800425 6.16633 0.772495 5.61203 0.836948 5.10715C0.94437 4.26496 1.27308 3.84172 1.30746 3.8009C2.12601 2.69446 3.03695 2.12727 4.01664 2.11008C4.69124 2.09934 5.40453 2.36145 6.07914 2.86848C6.48694 3.17371 7.08785 3.13962 7.4452 2.77663C8.11838 2.09282 8.83836 1.72851 9.59398 1.69113C10.2235 1.66106 10.883 1.86516 11.5018 2.2841C11.9659 2.59778 12.2409 2.91789 12.2537 2.93293L12.2559 2.93508C12.7028 3.49153 12.9799 4.13391 13.0809 4.84289C13.1625 5.40793 13.1303 6.01594 12.9907 6.65188C12.8387 7.33865 12.5929 7.90104 12.4297 8.22665C12.3289 8.4276 12.2316 8.63023 12.1292 8.83034C11.7181 9.63362 10.884 10.594 9.64339 11.6921C8.59925 12.6159 7.64105 13.297 7.63246 13.3034ZM1.97992 8.97864C2.0057 9.01946 2.30863 9.46848 3.11214 10.1732C3.60155 10.6023 4.34638 11.1853 5.41586 11.8598C6.69672 12.6676 8.35099 12.5395 9.48589 11.5369C10.5328 10.612 11.6813 9.43379 12.0733 8.43078L12.0776 8.42219L12.0819 8.4136C12.0862 8.405 12.5524 7.63586 12.7823 6.59387C13.0873 5.20813 12.8553 4.02219 12.0905 3.06613C12.0539 3.02531 10.9991 1.83293 9.60472 1.90168C8.64222 1.94895 7.73558 2.57844 6.90628 3.76867C6.86567 3.82745 6.77981 3.83027 6.73544 3.77427L6.73441 3.77297C6.72152 3.75578 5.56136 2.32063 4.06175 2.32063H4.02093C3.11259 2.33566 2.25791 2.87654 1.48263 3.9261C1.48187 3.92713 1.48103 3.92811 1.48012 3.92901C1.47818 3.93096 1.47659 3.93281 1.47493 3.93501C1.4459 3.97357 1.14601 4.373 1.04964 5.15012C0.955112 5.90637 1.04105 7.18469 1.97992 8.97864Z" fill="url(#paint11_linear_2017_5060)"/>
<path d="M8.52715 13.9829C8.37971 14.2042 8.05822 14.1338 7.79453 14.0993C7.69587 14.0864 7.59619 14.0767 7.51865 14.0767C7.5008 14.0767 7.48238 14.0772 7.46358 14.0782C7.11874 14.0955 6.66132 14.2053 6.56231 13.8745C6.55132 13.8378 6.54541 13.7989 6.54541 13.7587C6.54541 13.6226 6.61321 13.5016 6.71674 13.4278C6.85258 13.3311 7.03432 13.3413 7.20037 13.3256C7.31142 13.315 7.43722 13.3054 7.52725 13.3054C7.63999 13.3054 7.8362 13.3205 7.98577 13.3336C8.12124 13.3455 8.26554 13.3373 8.38452 13.4032C8.50978 13.4725 8.59502 13.6061 8.59502 13.7587C8.59502 13.8414 8.57 13.9186 8.52715 13.9829Z" fill="url(#paint12_linear_2017_5060)"/>
<path d="M8.04382 17.0423C8.00306 17.0858 7.93428 17.0759 7.89854 17.0283C7.86311 16.981 7.8739 16.9146 7.91042 16.8682C8.20449 16.4947 7.88048 15.6365 7.71847 15.3165C7.4481 14.761 7.49517 14.323 7.53655 14.1369C7.5487 14.0822 7.60566 14.0559 7.65813 14.0754C7.7156 14.0968 7.7493 14.1664 7.7389 14.2268C7.70889 14.4011 7.69022 14.7659 7.91183 15.2198C7.93644 15.2731 8.55009 16.5026 8.04382 17.0423ZM9.31047 3.39052C9.18156 3.42704 9.04836 3.35399 9.00754 3.22723C8.96672 3.10048 9.03547 2.96298 9.16222 2.91786C9.85617 2.69227 10.6167 2.90927 11.0872 3.46571C11.3601 3.76005 11.5577 4.11454 11.6673 4.50126C11.865 5.09208 11.8843 5.72802 11.7232 6.33173C11.6909 6.46493 11.5577 6.54872 11.4245 6.51864C11.3622 6.50145 11.3085 6.46063 11.2763 6.40263C11.2441 6.34677 11.2376 6.27802 11.2548 6.21571C11.3837 5.70009 11.3708 5.16083 11.2183 4.65165C11.1173 4.33798 10.9519 4.04794 10.7327 3.80087C10.5415 3.58602 10.2966 3.43134 10.0216 3.3497C9.78527 3.30887 9.5425 3.32177 9.31047 3.39052Z" fill="url(#paint13_linear_2017_5060)"/>
<defs>
<linearGradient id="paint0_linear_2017_5060" x1="15.9184" y1="1.85929" x2="15.3882" y2="1.859" gradientUnits="userSpaceOnUse">
<stop stop-color="#5C97F8"/>
<stop offset="0.865" stop-color="#C377D2"/>
</linearGradient>
<linearGradient id="paint1_linear_2017_5060" x1="16.5909" y1="1.85913" x2="14.7131" y2="1.84624" gradientUnits="userSpaceOnUse">
<stop stop-color="#5C97F8"/>
<stop offset="0.865" stop-color="#C377D2"/>
</linearGradient>
<linearGradient id="paint2_linear_2017_5060" x1="4.39187" y1="16.1215" x2="3.60641" y2="16.1208" gradientUnits="userSpaceOnUse">
<stop stop-color="#5C97F8"/>
<stop offset="0.865" stop-color="#C377D2"/>
</linearGradient>
<linearGradient id="paint3_linear_2017_5060" x1="4.83431" y1="16.1041" x2="3.25484" y2="16.098" gradientUnits="userSpaceOnUse">
<stop stop-color="#5C97F8"/>
<stop offset="0.865" stop-color="#C377D2"/>
</linearGradient>
<linearGradient id="paint4_linear_2017_5060" x1="17.0817" y1="3.8001" x2="16.6203" y2="3.79952" gradientUnits="userSpaceOnUse">
<stop stop-color="#5C97F8"/>
<stop offset="0.865" stop-color="#C377D2"/>
</linearGradient>
<linearGradient id="paint5_linear_2017_5060" x1="17.2039" y1="3.80001" x2="16.4968" y2="3.79791" gradientUnits="userSpaceOnUse">
<stop stop-color="#5C97F8"/>
<stop offset="0.865" stop-color="#C377D2"/>
</linearGradient>
<linearGradient id="paint6_linear_2017_5060" x1="13.2228" y1="14.8921" x2="12.6147" y2="14.8918" gradientUnits="userSpaceOnUse">
<stop stop-color="#5C97F8"/>
<stop offset="0.865" stop-color="#C377D2"/>
</linearGradient>
<linearGradient id="paint7_linear_2017_5060" x1="13.8853" y1="13.5536" x2="12.4138" y2="13.5489" gradientUnits="userSpaceOnUse">
<stop stop-color="#5C97F8"/>
<stop offset="0.865" stop-color="#C377D2"/>
</linearGradient>
<linearGradient id="paint8_linear_2017_5060" x1="19.0948" y1="8.60015" x2="10.1884" y2="8.58322" gradientUnits="userSpaceOnUse">
<stop stop-color="#5C97F8"/>
<stop offset="0.865" stop-color="#C377D2"/>
</linearGradient>
<linearGradient id="paint9_linear_2017_5060" x1="19.2005" y1="8.60887" x2="10.0807" y2="8.59156" gradientUnits="userSpaceOnUse">
<stop stop-color="#5C97F8"/>
<stop offset="0.865" stop-color="#C377D2"/>
</linearGradient>
<linearGradient id="paint10_linear_2017_5060" x1="13.0172" y1="7.49962" x2="0.911161" y2="7.47472" gradientUnits="userSpaceOnUse">
<stop stop-color="#5C97F8"/>
<stop offset="0.865" stop-color="#C377D2"/>
</linearGradient>
<linearGradient id="paint11_linear_2017_5060" x1="13.1251" y1="7.51195" x2="0.802754" y2="7.48667" gradientUnits="userSpaceOnUse">
<stop stop-color="#5C97F8"/>
<stop offset="0.865" stop-color="#C377D2"/>
</linearGradient>
<linearGradient id="paint12_linear_2017_5060" x1="8.59502" y1="13.7351" x2="6.54537" y2="13.7256" gradientUnits="userSpaceOnUse">
<stop stop-color="#5C97F8"/>
<stop offset="0.865" stop-color="#C377D2"/>
</linearGradient>
<linearGradient id="paint13_linear_2017_5060" x1="11.8313" y1="9.97229" x2="7.50446" y2="9.96974" gradientUnits="userSpaceOnUse">
<stop stop-color="#5C97F8"/>
<stop offset="0.865" stop-color="#C377D2"/>
</linearGradient>
</defs>
</svg>
