<svg width="14" height="15" viewBox="0 0 14 15" fill="none" xmlns="http://www.w3.org/2000/svg">
<g opacity="0.4">
<path d="M7 6.21651V12.1665M7 6.21651C7 5.23642 7 4.74658 7.19074 4.37223C7.35852 4.04295 7.62604 3.77514 7.95532 3.60736C8.32967 3.41663 8.81979 3.41663 9.79989 3.41663H11.3166C11.6432 3.41663 11.8067 3.41663 11.9315 3.48021C12.0413 3.53613 12.1303 3.62531 12.1862 3.73507C12.2498 3.85985 12.25 4.02332 12.25 4.35002V9.48335C12.25 9.81005 12.2498 9.97317 12.1862 10.098C12.1303 10.2077 12.0414 10.2972 11.9317 10.3531C11.807 10.4166 11.6439 10.4166 11.3179 10.4166H9.66545C9.11757 10.4166 8.84314 10.4166 8.59448 10.4921C8.37435 10.559 8.16997 10.6685 7.99224 10.8145C7.79148 10.9795 7.63935 11.2075 7.33544 11.6633L7 12.1665M7 6.21651C7 5.23642 6.9999 4.74658 6.80916 4.37223C6.64138 4.04295 6.37365 3.77514 6.04437 3.60736C5.67002 3.41663 5.17986 3.41663 4.19977 3.41663H2.68311C2.35641 3.41663 2.19322 3.41663 2.06844 3.48021C1.95868 3.53613 1.86951 3.62531 1.81358 3.73507C1.75 3.85985 1.75 4.02332 1.75 4.35002V9.48335C1.75 9.81005 1.75 9.97317 1.81358 10.098C1.86951 10.2077 1.95868 10.2972 2.06844 10.3531C2.1931 10.4166 2.35609 10.4166 2.68215 10.4166H4.33459C4.88247 10.4166 5.15633 10.4166 5.40498 10.4921C5.62512 10.559 5.83049 10.6685 6.00822 10.8145C6.20816 10.9789 6.35934 11.2056 6.66078 11.6578L7 12.1665" stroke="white" stroke-linecap="round" stroke-linejoin="round"/>
</g>
</svg>
